<?xml version="1.0" encoding="UTF-8"?>
<svg width="1200pt" height="1200pt" version="1.1" viewBox="0 0 1200 1200" xmlns="http://www.w3.org/2000/svg">
 <g>
  <path d="m272.38 557.9c-0.33594-3.2891-0.58984-6.5625-0.76953-9.8398 0.17188 3.3242 0.43359 6.6016 0.76953 9.8398z"/>
  <path d="m780.16 682.84 2.9297 3.3359-2.6055 9.1445 11.809 11.797h25.02c5.4492-13.777 21.395-58.055 39.133-142.74-10.957-2.5781-34.969-7.2461-65.375-7.2461-49.883 0-95.723 11.785-136.32 35.039 27.07 15.391 91.773 52.676 125.41 90.668z"/>
  <path d="m408.71 501.5 74.328 172.99 14.195 36.695h24.383c12.637-8.7461 68.629-50.027 108.42-119.58-4.7266-11.844-20.832-48.023-56.027-89.23-24.805-29.039-54.035-54.707-86.867-76.246-36.984-24.254-78.73-43.367-124.2-56.855 3.9102 10.992 10.32 29.41 20.688 59.387 11.914 34.461 23.832 69.188 25.078 72.836z"/>
  <path d="m682.23 679.69c1.2344 5.6523 2.1953 10.547 3.0117 15.07l74.219-8.1016c-14.258-17.074-46.586-50.797-101.66-83.102 4.0312 9.3125 7.7148 18.816 11.039 28.355 8.043 17.754 12.461 33.473 13.395 47.777z"/>
  <path d="m671.16 696.98c0.37109-2.7969 0.66016-5.9648 0.64844-9.707-0.023438-12.121-3.2266-25.848-9.8281-42.012-4.9805-12.238-11.953-25.812-20.746-40.414-3.875 5.0273-9.3477 11.734-17.219 21.023-12.984 15.371-26.555 30.492-38.641 43.043z"/>
  <path d="m1069.2 725.54 21.648 7.5586 74.473-107.43c-7.4414-0.23828-14.855-0.37109-22.066-0.37109-90.742 0-137.02 19.129-155.21 27.602 48.992 34.082 75.18 65.16 81.152 72.637z"/>
  <path d="m881.3 636.56c2.0273 1.4648 49.379 36.254 71.82 71.23 3.8633 0.35938 13.176 0.64844 23.734 0.69531 2.375-8.5312 6.6133-30.227-3.8164-52.066-0.69531-0.3125-1.5977-0.74219-2.7969-1.2734-10.621-4.9062-42.012-19.453-99.098-28.922l2.0625 4.4414z"/>
  <path d="m1169.4 734.15 1.5859-3.1562-47.859-26.207-19.906 29.363z"/>
  <path d="m373.59 596.63c8.8672-38.855 16.262-74.449 18.695-87.602-71.762-36.551-118.41-47.543-142.61-50.746 52.355 72.527 91.691 196.99 100.88 227.53 2.832-7.8359 9.4453-29.652 23.031-89.184z"/>
  <path d="m319.33 683.5c-0.76953-1.2969-1.5234-2.6055-2.2695-3.8984-14.426-18.133-47.797-66.926-50.977-132.95-40.766-24.742-155.73-32.125-193.79-33.938 68.578 59.027 105.12 126.27 114.09 144.12l0.38281-0.15625h16.309l12.684-28.176s51.289 15.359 63.781 18.648l9.5508 3.168c2.832 3.3945 7.9453 10.488 15.156 21.047l7.9336 10.391z"/>
  <path d="m83.652 671.05 63.168 4.0078c14.914-9.3008 20.629-11.664 27.133-16.766-10.285-20.387-23.531-41.773-32.617-55.848l-1.6211 15.695-1.4141 1.8242c-10.32 9.3125-23.891 25.094-29.52 28.848-8.8672 5.2578-17.102 9.0703-22.812 12.469-1.0195 2.8945-2.3164 9.7695-2.3164 9.7695z"/>
  <path d="m898.6 663.74c2.0742 4.9453 4.5859 11.051 7.5117 18.406l1.6445 4.0781-32.988 21.996 64.141-0.94922c-8.6523-10.902-25.852-31.781-40.309-43.531z"/>
  <path d="m989.26 702.86 42.098-4.3203c-10.859-9.2148-29.363-24.383-45.457-34.992 3.3594 10.574 7.0547 25.621 3.3594 39.312z"/>
  <path d="m464.12 668.86-60.758-139.07-36.25 150.31 11.027-26.172z"/>
  <path d="m283.74 589.39c5.8438 21.863 15.098 43.055 27.504 63.035 5.6406 9.0703 10.871 16.152 14.832 21.133-2.5547-47.016-31.895-108.5-43.754-131.62l-5.3398 5.9766c0.78516 13.742 3.0508 27.688 6.7578 41.473z"/>
  <path d="m1097.1 746.68-50.102-21.059-571.12 0.91016-79.27-6.3242-40.535-24.312-48.648-8.1211-25.332-27.625-60.254-17.582-11.277 25.094-26.344 1.5352-35.508 16.406-66.766-2.6406-0.79297 0.99609-23.449 29.938-24.105 34.035-12.504 28.137v48.648h1164.8l0.42188-76.281-13.754-0.75781z"/>
 </g>
</svg>
